<?xml version="1.0" standalone="no"?>
<!DOCTYPE svg PUBLIC "-//W3C//DTD SVG 20010904//EN"
 "http://www.w3.org/TR/2001/REC-SVG-20010904/DTD/svg10.dtd">
<svg version="1.0" xmlns="http://www.w3.org/2000/svg"
 width="144.000000pt" height="144.000000pt" viewBox="0 0 144.000000 144.000000"
 preserveAspectRatio="xMidYMid meet">
<metadata>
Created by potrace 1.14, written by Peter Selinger 2001-2017
</metadata>
<g transform="translate(0.000000,144.000000) scale(0.100000,-0.100000)"
fill="#000000" stroke="none">
<path d="M0 720 l0 -580 720 0 720 0 0 580 0 580 -720 0 -720 0 0 -580z m820
489 l0 -61 -100 7 -100 8 0 -117 0 -117 40 3 c21 1 42 8 44 15 3 7 19 13 36
13 18 0 29 4 25 10 -4 6 10 10 35 10 27 0 43 5 46 15 4 10 20 15 44 15 22 0
42 5 45 10 3 6 22 10 41 10 19 0 34 5 34 10 0 6 14 10 30 10 20 0 30 5 30 15
0 12 13 15 55 15 42 0 55 -3 55 -15 0 -8 9 -15 20 -15 11 0 20 -7 20 -15 0 -8
5 -15 10 -15 6 0 10 -7 10 -15 0 -9 7 -18 15 -21 8 -4 15 -12 15 -20 0 -8 5
-14 10 -14 6 0 10 -4 10 -10 0 -5 -10 -10 -22 -10 -12 0 -18 -3 -15 -6 9 -9
-32 -44 -50 -44 -17 0 -43 24 -43 39 0 6 -7 11 -15 11 -8 0 -15 7 -15 15 0 8
-7 15 -15 15 -8 0 -17 11 -21 25 -4 18 -13 25 -30 25 -15 0 -24 -6 -24 -15 0
-10 -10 -15 -26 -15 -16 0 -36 -11 -50 -25 -13 -14 -30 -25 -39 -25 -8 0 -15
-4 -15 -10 0 -5 -8 -10 -17 -10 -10 0 -24 -4 -32 -9 -12 -8 -12 -12 2 -25 8
-9 20 -16 26 -16 5 0 14 -6 18 -14 9 -15 54 -41 66 -38 4 1 7 -5 7 -13 0 -8 7
-15 15 -15 8 0 15 -4 15 -10 0 -5 7 -10 15 -10 8 0 15 -7 15 -15 0 -8 5 -15
11 -15 6 0 17 -6 25 -14 8 -8 14 -19 14 -25 0 -6 7 -11 16 -11 9 0 31 -16 50
-35 18 -19 40 -35 48 -35 9 0 16 -4 16 -9 0 -5 9 -12 19 -16 23 -7 36 -45 15
-45 -8 0 -14 -10 -14 -24 0 -13 -7 -26 -15 -30 -8 -3 -15 -15 -15 -26 0 -11
-7 -20 -15 -20 -8 0 -15 -7 -15 -15 0 -8 -7 -15 -15 -15 -8 0 -15 -6 -15 -12
0 -7 -5 -5 -11 5 -6 9 -22 17 -38 17 -15 0 -36 6 -47 14 -18 14 -18 15 -1 21
9 4 17 18 17 31 0 13 4 24 10 24 5 0 12 11 16 25 3 14 12 25 20 25 9 0 14 11
14 29 0 25 -5 31 -30 36 -16 4 -30 11 -30 16 0 5 -11 11 -25 15 -14 3 -25 10
-25 15 0 5 -9 9 -19 9 -11 0 -26 7 -35 15 -8 8 -19 15 -24 15 -6 0 -13 7 -16
16 -10 25 -26 6 -26 -31 0 -20 -6 -35 -15 -39 -11 -4 -15 -21 -15 -63 -1 -32
-7 -69 -15 -83 -8 -14 -14 -51 -15 -82 0 -32 -4 -58 -10 -58 -5 0 -10 -32 -12
-71 l-3 -72 -50 -15 c-73 -21 -186 -27 -196 -10 -5 7 -9 34 -9 61 l0 47 100 0
100 0 0 115 0 115 -25 0 c-14 0 -28 -7 -31 -15 -4 -9 -19 -15 -41 -15 -19 0
-41 -7 -49 -15 -9 -8 -24 -15 -35 -15 -10 0 -19 -4 -19 -10 0 -5 -16 -10 -35
-10 -21 0 -38 -6 -41 -14 -3 -9 -28 -17 -65 -21 -33 -4 -66 -13 -74 -21 -7 -8
-25 -14 -39 -14 -14 0 -26 -5 -26 -12 0 -6 -3 -8 -7 -5 -3 4 -12 2 -19 -4 -17
-14 -54 -2 -54 17 0 20 -24 44 -44 44 -9 0 -16 7 -16 15 0 8 -7 15 -15 15 -8
0 -15 9 -15 21 0 11 -4 17 -10 14 -5 -3 -10 1 -10 9 0 22 36 56 60 56 11 0 20
7 20 15 0 8 7 15 15 15 8 0 15 -5 15 -11 0 -7 11 -22 25 -35 14 -13 25 -32 25
-44 0 -11 5 -20 10 -20 6 0 22 -12 35 -26 l24 -26 24 26 c14 15 35 26 51 26
16 0 26 5 26 15 0 8 7 15 15 15 8 0 15 5 15 10 0 6 9 10 19 10 11 0 26 7 35
15 8 8 19 15 25 15 6 0 11 7 11 15 0 8 -5 15 -10 15 -6 0 -20 9 -32 20 -12 11
-30 20 -40 20 -11 0 -29 11 -42 25 -13 14 -31 25 -40 25 -9 0 -16 5 -16 11 0
14 -25 39 -39 39 -6 0 -11 7 -11 15 0 8 -9 15 -20 15 -12 0 -31 11 -44 25 -13
14 -28 25 -35 25 -6 0 -11 5 -11 10 0 6 -7 10 -15 10 -8 0 -15 5 -15 10 0 6
-7 10 -15 10 -8 0 -15 7 -15 15 0 8 -7 15 -15 15 -20 0 -20 44 0 64 8 8 15 24
15 35 0 12 6 21 15 21 8 0 15 6 15 13 0 21 42 65 47 50 3 -7 18 -13 34 -13 16
0 29 -4 29 -10 0 -5 7 -10 15 -10 9 0 15 -9 15 -25 0 -14 -4 -25 -10 -25 -5 0
-12 -11 -16 -25 -3 -14 -12 -25 -20 -25 -8 0 -14 -10 -14 -24 0 -13 -6 -27
-12 -30 -10 -5 -10 -7 0 -12 6 -3 12 -12 12 -20 0 -9 11 -14 30 -14 17 0 30
-4 30 -10 0 -5 11 -10 25 -10 14 0 25 -4 25 -9 0 -5 13 -12 30 -16 17 -4 30
-11 30 -16 0 -5 7 -9 15 -9 9 0 15 9 15 25 0 16 6 25 15 25 11 0 15 12 15 45
0 31 5 47 15 51 11 4 15 21 15 55 0 27 4 49 9 49 4 0 11 19 14 42 3 24 11 44
16 46 6 2 11 28 11 57 0 44 3 53 20 58 14 3 20 14 20 31 l0 26 110 0 110 0 0
-61z"/>
<path d="M825 751 c-3 -5 -1 -12 5 -16 5 -3 10 1 10 9 0 18 -6 21 -15 7z"/>
</g>
</svg>
