<svg width="7" height="8" viewBox="0 0 7 8" fill="none" xmlns="http://www.w3.org/2000/svg">
<g id="1f1baa5b8edac74eb4eaa329f14a0361 1" clip-path="url(#clip0_59_257)">
<g id="Group">
<g id="Group_2">
<path id="Vector" d="M6.58701 1.2561C6.68501 1.2561 6.76691 1.2937 6.83201 1.3681C6.89711 1.4425 6.93001 1.5361 6.93001 1.6481C6.93001 1.7585 6.89711 1.8513 6.83061 1.9265L2.71461 6.6305C2.64881 6.7057 2.56691 6.7441 2.47101 6.7441C2.37511 6.7441 2.29321 6.7065 2.22741 6.6305L0.169407 4.2785C0.102907 4.2033 0.0700073 4.1105 0.0700073 4.0001C0.0700073 3.8881 0.102907 3.7945 0.168007 3.7201C0.233107 3.6457 0.315007 3.6081 0.413007 3.6081C0.509607 3.6081 0.590807 3.6457 0.656607 3.7217L2.47101 5.7977L6.34341 1.3697C6.40921 1.2937 6.49041 1.2561 6.58701 1.2561Z" fill="black" stroke="black" stroke-width="0.5"/>
</g>
</g>
</g>
<defs>
<clipPath id="clip0_59_257">
<rect width="7" height="8" fill="white"/>
</clipPath>
</defs>
</svg>
