<svg width="10" height="6" viewBox="0 0 10 6" fill="none" xmlns="http://www.w3.org/2000/svg">
<path id="Vector" d="M9.685 1.43591C9.972 1.14891 9.972 0.682914 9.685 0.395914C9.398 0.108914 8.932 0.108914 8.645 0.395914L5.449 3.59091C5.32 3.69091 5.162 3.74691 4.997 3.74691C4.832 3.74691 4.673 3.69091 4.545 3.59091L1.356 0.401914C1.069 0.114914 0.603 0.114914 0.316 0.401914C0.029 0.688914 0.029 1.15491 0.316 1.44191L4.477 5.60291C4.615 5.74091 4.802 5.81791 4.997 5.81791C5.192 5.81791 5.379 5.74091 5.517 5.60291L9.685 1.43591Z" fill="white"/>
</svg>
