<svg width="44" height="51" viewBox="0 0 44 51" fill="none" xmlns="http://www.w3.org/2000/svg">
<path d="M20.9824 47.6278C20.9824 47.6278 23.4724 49.0554 21.0737 50.9063C19.2809 50.8897 9.33749 50.9229 9.33749 50.9229C9.33749 50.9229 1.64339 50.1676 0.871487 40.938C0.871487 35.0035 0.829987 10.1533 0.829987 10.1533C0.829987 10.1533 1.36119 1.35535 9.17149 0.0771484L35.6402 0.118648C35.6402 0.118648 43.326 0.981849 43.9319 10.6513C43.9319 13.9132 43.9734 36.8544 43.9734 36.8544C43.9734 36.8544 42.6703 44.8639 32.5775 50.9063C32.5941 50.8897 29.6393 50.9229 29.6393 50.9229C29.6393 50.9229 28.4939 50.566 28.4524 48.9973C28.4109 47.4369 28.4939 42.2909 28.4939 42.2909C28.4939 42.2909 28.9836 36.5639 34.6691 35.5098C38.678 35.5098 40.9273 35.5098 40.9273 35.5098L40.9688 10.1948C40.9688 10.1948 40.421 3.93665 35.4327 3.39715C30.7266 3.35565 9.62799 3.39715 9.62799 3.39715C9.62799 3.39715 4.43219 3.54655 3.99229 10.5019C3.97569 15.7558 3.93419 40.4898 3.93419 40.4898C3.93419 40.4898 4.23299 47.0053 9.61969 47.6278C14.7491 47.661 20.9824 47.6278 20.9824 47.6278ZM39.8981 38.8464H34.4948C34.4948 38.8464 31.8222 39.6017 31.4985 42.6893C31.4985 42.6727 31.54 47.5863 31.54 47.5863L32.1791 47.661C32.1791 47.661 36.2627 44.8556 39.8981 38.8464Z" fill="#FF6B00"/>
<path d="M33.3494 13.6725C33.3494 14.7764 32.4613 15.6645 31.3574 15.6645H14.2345C13.1306 15.6645 12.2425 14.7764 12.2425 13.6725C12.2425 12.5686 13.1306 11.6805 14.2345 11.6805H31.3574C32.453 11.6805 33.3494 12.5686 33.3494 13.6725Z" fill="#FF6B00"/>
<path d="M33.3743 25.2012C33.3743 26.3051 32.4862 27.1932 31.3823 27.1932H14.2594C13.1555 27.1932 12.2674 26.3051 12.2674 25.2012C12.2674 24.0973 13.1555 23.2092 14.2594 23.2092H31.3823C32.4779 23.2092 33.3743 24.0973 33.3743 25.2012Z" fill="#FF6B00"/>
<path d="M23.4807 36.7881C23.4807 37.9335 22.5511 38.8631 21.4057 38.8631H14.3673C13.2219 38.8631 12.2923 37.9335 12.2923 36.7881C12.2923 35.6427 13.2219 34.7131 14.3673 34.7131H21.4057C22.5511 34.7048 23.4807 35.6344 23.4807 36.7881Z" fill="#FF6B00"/>
</svg>
