<svg width="80" height="53" viewBox="0 0 80 53" fill="none" xmlns="http://www.w3.org/2000/svg">
<path d="M31.21 41.7383H54.2094C56.9708 41.7383 59.2094 39.4997 59.2094 36.7383V26.9808V26.9808C59.2094 26.3057 59.7567 25.7585 60.4317 25.7585V25.7585H70.0311V25.7585C70.3873 25.7585 70.7252 25.9167 70.9533 26.1904L70.96 26.1985L78.0577 34.7466L78.0664 34.7571C78.245 34.9715 78.3429 35.2417 78.3429 35.5208V35.5208V41.4368C78.3429 41.6033 78.4779 41.7383 78.6444 41.7383V41.7383V41.7383C79.3149 41.7383 79.8586 42.2901 79.8586 42.9606V42.9606V48.5589V48.5589C79.8586 49.2295 79.3149 49.7731 78.6444 49.7731V49.7731H77.3308C76.5705 49.7731 75.9089 50.2475 75.455 50.8575C75.3008 51.0647 75.1314 51.2598 74.9477 51.4407C74.9458 51.4426 74.9434 51.4436 74.9408 51.4436V51.4436C74.9381 51.4436 74.9356 51.4446 74.9338 51.4465C73.9724 52.4063 72.6454 53 71.1882 53C69.731 53 68.4039 52.4063 67.4426 51.4464C67.4408 51.4446 67.4383 51.4436 67.4357 51.4436V51.4436C67.433 51.4436 67.4305 51.4425 67.4287 51.4407C67.2462 51.2579 67.076 51.0606 66.9202 50.8511C66.4689 50.2439 65.8084 49.7731 65.0518 49.7731H44.6703C43.9099 49.7731 43.2484 50.2475 42.7945 50.8575C42.6403 51.0647 42.4709 51.2598 42.2872 51.4407C42.2853 51.4426 42.2828 51.4436 42.2802 51.4436V51.4436C42.2776 51.4436 42.2751 51.4446 42.2732 51.4465C41.3119 52.4063 39.9849 53 38.5277 53C37.0705 53 35.7434 52.4063 34.7821 51.4464C34.7802 51.4446 34.7777 51.4436 34.7751 51.4436V51.4436C34.7725 51.4436 34.77 51.4425 34.7682 51.4407C34.5873 51.2596 34.4185 51.0641 34.2643 50.8566C33.8127 50.249 33.1532 49.7731 32.3961 49.7731H31.21V49.7731C30.5395 49.7731 29.9877 49.2295 29.9877 48.5589V48.5589V42.9606V42.9606C29.9877 42.2856 30.535 41.7383 31.21 41.7383V41.7383ZM-nan -nanL38.3403 21.3581H37.9328C37.7078 21.3581 37.5254 21.5405 37.5254 21.7655V22.173V27.9342V27.9342C37.5254 28.3842 37.8902 28.7491 38.3403 28.7491V28.7491H46.6928V28.7491C47.1429 28.7491 47.5077 28.3842 47.5077 27.9342V27.9342V22.173V22.173C47.5077 21.7229 47.1429 21.3581 46.6928 21.3581V21.3581H38.3403L-nan -nanL-nan -nanZM45.8779 25.0454C45.8779 23.9046 44.9531 22.9797 43.8122 22.9797H41.2209C40.08 22.9797 39.1551 23.9046 39.1551 25.0454V25.0454C39.1551 26.1863 40.08 27.1112 41.2209 27.1112H43.8122C44.9531 27.1112 45.8779 26.1863 45.8779 25.0454V25.0454ZM38.3403 29.7881C38.3403 29.7903 38.3384 29.7921 38.3362 29.7921H37.9328C37.7078 29.7921 37.5254 29.9745 37.5254 30.1996V30.607V36.3601V36.3601C37.5254 36.8101 37.8902 37.175 38.3403 37.175V37.175H46.6928V37.175C47.1429 37.175 47.5077 36.8101 47.5077 36.3601V36.3601V30.5989V30.5989C47.5077 30.1488 47.1429 29.784 46.6928 29.784V29.784H38.3443C38.3421 29.784 38.3403 29.7858 38.3403 29.7881V29.7881ZM45.8779 33.4835C45.8779 32.3404 44.9512 31.4137 43.8081 31.4137H41.2249C40.0818 31.4137 39.1551 32.3404 39.1551 33.4835V33.4835C39.1551 34.6267 40.0818 35.5533 41.2249 35.5533H43.8081C44.9512 35.5533 45.8779 34.6267 45.8779 33.4835V33.4835ZM-nan -nanL26.883 21.3581H26.4756C26.2505 21.3581 26.0681 21.5405 26.0681 21.7655V22.173V27.9342V27.9342C26.0681 28.3842 26.4329 28.7491 26.883 28.7491V28.7491H35.2274V28.7491C35.6774 28.7491 36.0423 28.3842 36.0423 27.9342V27.9342V22.173V22.173C36.0423 21.7229 35.6774 21.3581 35.2274 21.3581V21.3581H26.883L-nan -nanL-nan -nanZM34.4207 25.0454C34.4207 23.9046 33.4958 22.9797 32.3549 22.9797H29.7636C28.6227 22.9797 27.6979 23.9046 27.6979 25.0454V25.0454C27.6979 26.1863 28.6227 27.1112 29.7636 27.1112H32.3549C33.4958 27.1112 34.4207 26.1863 34.4207 25.0454V25.0454ZM26.883 29.7881C26.883 29.7903 26.8812 29.7921 26.8789 29.7921H26.4756C26.2505 29.7921 26.0681 29.9745 26.0681 30.1996V30.607V36.3601V36.3601C26.0681 36.8101 26.4329 37.175 26.883 37.175V37.175H35.2274V37.175C35.6774 37.175 36.0423 36.8101 36.0423 36.3601V36.3601V30.5989V30.5989C36.0423 30.1488 35.6774 29.784 35.2274 29.784V29.784H26.8871C26.8848 29.784 26.883 29.7858 26.883 29.7881V29.7881ZM34.4207 33.4835C34.4207 32.3404 33.494 31.4137 32.3509 31.4137H29.7677C28.6246 31.4137 27.6979 32.3404 27.6979 33.4835V33.4835C27.6979 34.6267 28.6246 35.5533 29.7677 35.5533H32.3509C33.494 35.5533 34.4207 34.6267 34.4207 33.4835V33.4835ZM-nan -nanL15.6539 21.3581H24.0065V21.3581C24.4565 21.3581 24.8213 21.7229 24.8213 22.173V22.173V27.9342V27.9342C24.8213 28.3842 24.4565 28.7491 24.0065 28.7491V28.7491H15.6539V28.7491C15.2039 28.7491 14.839 28.3842 14.839 27.9342V27.9342V22.173V21.7655C14.839 21.5405 15.0214 21.3581 15.2465 21.3581H15.6539L-nan -nanL-nan -nanZM23.1916 25.0454C23.1916 23.9046 22.2667 22.9797 21.1258 22.9797H18.5345C17.3936 22.9797 16.4688 23.9046 16.4688 25.0454V25.0454C16.4688 26.1863 17.3936 27.1112 18.5345 27.1112H21.1258C22.2667 27.1112 23.1916 26.1863 23.1916 25.0454V25.0454ZM15.6539 29.7881C15.6539 29.7903 15.6557 29.7921 15.658 29.7921H24.0065V29.7921C24.4565 29.7921 24.8213 30.157 24.8213 30.607V30.607V36.3601V36.3601C24.8213 36.8101 24.4565 37.175 24.0065 37.175V37.175H15.6539V37.175C15.2039 37.175 14.839 36.8101 14.839 36.3601V36.3601V30.5989V30.1914C14.839 29.9664 15.0214 29.784 15.2465 29.784H15.6498C15.6521 29.784 15.6539 29.7858 15.6539 29.7881V29.7881ZM23.1916 33.4835C23.1916 32.3404 22.2649 31.4137 21.1218 31.4137H18.5386C17.3955 31.4137 16.4688 32.3404 16.4688 33.4835V33.4835C16.4688 34.6267 17.3955 35.5533 18.5386 35.5533H21.1218C22.2649 35.5533 23.1916 34.6267 23.1916 33.4835V33.4835ZM15.6539 38.0632H24.0065V38.0632C24.4565 38.0632 24.8213 38.428 24.8213 38.8781V38.8781V44.6393V44.6393C24.8213 45.0893 24.4565 45.4542 24.0065 45.4542V45.4542H15.6539V45.4542C15.2039 45.4542 14.839 45.0893 14.839 44.6393V44.6393V38.8781V38.8781C14.839 38.428 15.2039 38.0632 15.6539 38.0632V38.0632ZM23.1916 41.7587C23.1916 40.6178 22.2667 39.693 21.1258 39.693H18.5345C17.3936 39.693 16.4688 40.6178 16.4688 41.7587V41.7587C16.4688 42.8996 17.3936 43.8244 18.5345 43.8244H21.1259C22.2667 43.8244 23.1916 42.8996 23.1916 41.7587V41.7587ZM56.5571 20.5188C57.1981 20.8831 58.0131 20.6583 58.3764 20.0168L58.9175 19.0616C59.5785 17.8949 59.1691 16.4132 58.003 15.7512L30.3865 0.0737459C30.3148 0.0330129 30.2236 0.0581438 30.1828 0.129881V0.129881C30.1255 0.230693 29.9802 0.230699 29.923 0.129887V0.129887C29.8822 0.0581471 29.791 0.0330232 29.7193 0.0737662L2.1107 15.751C0.944639 16.4132 0.535426 17.8948 1.19635 19.0615L1.32756 19.2931C1.91725 20.3341 3.23975 20.699 4.27984 20.1078V20.1078C5.72243 19.2877 7.51322 20.3296 7.51322 21.989V48.5874C7.51322 49.4853 8.24107 50.2131 9.13892 50.2131V50.2131C10.0368 50.2131 10.7646 49.4853 10.7646 48.5874V19.3307C10.7646 17.5315 11.7312 15.871 13.2958 14.9827L27.5844 6.86948C29.1153 6.00023 30.9905 6.00012 32.5215 6.86919L48.7815 16.0992C50.3463 16.9874 51.3132 18.6481 51.3132 20.4474V33.5121C51.3132 34.4099 52.041 35.1378 52.9389 35.1378V35.1378C53.8367 35.1378 54.5646 34.4099 54.5646 33.5121V21.6781C54.5646 20.6555 55.6681 20.0134 56.5571 20.5188V20.5188ZM76.4442 46.8904C76.4823 47.1402 76.6894 47.3366 76.942 47.3366V47.3366C77.2071 47.3366 77.422 47.1216 77.422 46.8565V44.8806C77.422 44.4953 77.1097 44.183 76.7245 44.183V44.183C76.1216 44.183 75.766 44.9338 76.0195 45.4808C76.2233 45.9203 76.3683 46.3932 76.4442 46.8904ZM66.0594 46.2806C66.3066 45.3666 65.71 44.1748 64.7632 44.1748H44.9711C44.0202 44.1748 43.4165 45.3727 43.6664 46.2901V46.2901C43.819 46.85 44.2914 47.3284 44.8717 47.3284H64.8508C65.4344 47.3284 65.9071 46.844 66.0594 46.2806V46.2806ZM72.6468 46.2283C72.272 45.8535 71.7586 45.6253 71.18 45.6253C70.6096 45.6253 70.0881 45.8535 69.7133 46.2283C69.3466 46.595 69.1102 47.1165 69.1102 47.687C69.1102 48.2574 69.3384 48.7789 69.7133 49.1538C70.0881 49.5286 70.6015 49.7568 71.18 49.7568C71.7505 49.7568 72.272 49.5286 72.6468 49.1538C73.0135 48.7871 73.2499 48.2655 73.2499 47.687C73.2499 47.1165 73.0217 46.595 72.6468 46.2283ZM33.739 45.3857C33.9867 44.8745 33.6531 44.1748 33.0851 44.1748V44.1748C32.7201 44.1748 32.4242 44.4707 32.4242 44.8357V46.9156C32.4242 47.1436 32.609 47.3284 32.837 47.3284V47.3284C33.0541 47.3284 33.2324 47.1597 33.2629 46.9447C33.341 46.3931 33.5047 45.8692 33.739 45.3857ZM39.9945 46.2283C39.6196 45.8535 39.1062 45.6253 38.5277 45.6253C37.9573 45.6253 37.4357 45.8535 37.069 46.2283C36.6942 46.595 36.466 47.1165 36.466 47.687C36.466 48.2574 36.6942 48.7789 37.069 49.1538C37.4357 49.5286 37.9573 49.7568 38.5277 49.7568C39.0981 49.7568 39.6196 49.5286 39.9945 49.1538C40.3612 48.7871 40.5975 48.2655 40.5975 47.687C40.5975 47.1165 40.3612 46.595 39.9945 46.2283ZM75.9064 38.2914H64.2698V38.2914C63.8198 38.2914 63.455 37.9265 63.455 37.4765V37.4765V30.7048V30.7048C63.455 30.2547 63.8198 29.8899 64.2698 29.8899V29.8899H69.0551C69.7732 29.8899 70.1659 29.0526 69.7066 28.5005V28.5005C69.5456 28.3069 69.3069 28.195 69.0551 28.195H66.6378C63.8763 28.195 61.6378 30.4335 61.6378 33.195V36.7383C61.6378 39.4997 63.8763 41.7383 66.6378 41.7383H74.1747C75.1266 41.7383 75.8982 40.9667 75.8982 40.0148V38.2995C75.8982 38.295 75.9019 38.2914 75.9064 38.2914V38.2914ZM73.67 33.2653C72.7483 32.1543 71.3797 31.5115 69.9362 31.5115H67.6597C66.2376 31.5115 65.0847 32.6644 65.0847 34.0866V34.0866C65.0847 35.5087 66.2376 36.6616 67.6598 36.6616H75.3914C75.6758 36.6616 75.9064 36.431 75.9064 36.1466V36.1466C75.9064 36.0265 75.8644 35.9102 75.7877 35.8178L73.67 33.2653Z" fill="#FF6B00"/>
</svg>
